<?xml version="1.0" standalone="no"?>
<!DOCTYPE svg PUBLIC "-//W3C//DTD SVG 20010904//EN"
 "http://www.w3.org/TR/2001/REC-SVG-20010904/DTD/svg10.dtd">
<svg version="1.0" xmlns="http://www.w3.org/2000/svg"
 width="1024.000000pt" height="1024.000000pt" viewBox="0 0 1024.000000 1024.000000"
 preserveAspectRatio="xMidYMid meet">

<g transform="translate(0.000000,1024.000000) scale(0.100000,-0.100000)"
fill="#000000" stroke="none">
<path d="M0 5120 l0 -5120 5120 0 5120 0 0 5120 0 5120 -5120 0 -5120 0 0
-5120z m6590 3330 c494 -50 1036 -227 1523 -497 150 -83 418 -256 467 -300 14
-13 28 -23 32 -23 9 0 154 -296 233 -474 229 -521 492 -1280 590 -1707 9 -41
23 -94 30 -119 38 -128 123 -539 169 -820 79 -478 126 -988 126 -1369 l0 -164
-70 -94 c-182 -241 -475 -496 -770 -670 -392 -230 -878 -378 -1381 -420 l-199
-16 -38 43 c-20 24 -48 58 -62 76 -14 17 -102 125 -196 240 -93 115 -182 226
-198 246 l-27 36 93 30 c458 147 831 367 1131 668 94 94 214 240 205 250 -3 2
-34 -15 -69 -37 -455 -295 -1190 -595 -1769 -723 -464 -102 -867 -142 -1340
-133 -770 15 -1365 150 -1955 444 -245 123 -418 231 -590 369 -97 77 -235 209
-235 224 0 24 67 205 106 289 53 113 113 199 196 281 60 59 214 170 236 170 5
0 27 -23 47 -51 137 -191 380 -378 575 -442 101 -34 168 -41 273 -27 166 21
305 85 428 198 123 114 197 230 250 392 l27 85 658 0 658 0 14 -55 c7 -30 31
-93 53 -138 201 -432 680 -609 1080 -401 234 122 403 365 450 645 l11 71 83
37 c237 107 447 298 595 541 97 159 178 383 221 615 23 123 24 138 27 860 l3
736 -108 81 c-441 330 -966 616 -1482 807 -146 55 -365 126 -386 126 -8 0 -15
5 -15 10 0 10 73 96 95 112 14 10 91 10 205 -2z"/>
</g>
</svg>
